<svg id="svg" version="1.1" xmlns="http://www.w3.org/2000/svg" xmlns:xlink="http://www.w3.org/1999/xlink" width="400" height="183.33333333333334" viewBox="0, 0, 400,183.33333333333334"><g id="svgg"><path id="path0" d="" stroke="none" fill="#fc4c04" fill-rule="evenodd"></path><path id="path1" d="M229.115 4.903 C 228.888 5.055,228.702 5.258,228.702 5.354 C 228.702 5.450,228.825 5.406,228.974 5.256 C 229.124 5.107,229.351 4.947,229.479 4.902 C 229.607 4.856,229.670 4.775,229.619 4.722 C 229.569 4.669,229.342 4.750,229.115 4.903 M228.109 5.398 C 227.934 5.525,227.841 5.680,227.902 5.741 C 227.963 5.802,228.136 5.728,228.288 5.576 C 228.644 5.220,228.520 5.097,228.109 5.398 M253.861 9.560 C 253.627 9.849,253.546 10.043,253.681 9.991 C 253.929 9.896,254.455 9.178,254.346 9.085 C 254.313 9.057,254.095 9.271,253.861 9.560 M264.970 11.035 C 264.726 11.291,264.710 11.371,264.905 11.371 C 265.045 11.371,265.212 11.235,265.276 11.070 C 265.436 10.651,265.346 10.641,264.970 11.035 M250.432 13.025 C 250.040 13.427,249.780 13.755,249.854 13.755 C 250.041 13.755,251.315 12.465,251.221 12.371 C 251.180 12.329,250.824 12.623,250.432 13.025 M224.760 12.839 C 224.943 13.042,225.131 13.169,225.177 13.123 C 225.277 13.024,224.754 12.471,224.561 12.471 C 224.487 12.471,224.577 12.637,224.760 12.839 M263.041 13.021 C 262.917 13.220,262.895 13.416,262.989 13.474 C 263.081 13.531,263.210 13.405,263.277 13.194 C 263.440 12.681,263.312 12.588,263.041 13.021 M226.411 14.490 C 226.594 14.692,226.784 14.818,226.832 14.769 C 226.956 14.646,226.498 14.122,226.267 14.122 C 226.163 14.122,226.228 14.288,226.411 14.490 M228.428 16.507 C 228.611 16.710,228.801 16.835,228.850 16.787 C 228.973 16.664,228.516 16.139,228.285 16.139 C 228.181 16.139,228.245 16.305,228.428 16.507 M259.553 16.433 C 259.423 16.574,259.381 16.691,259.461 16.692 C 259.541 16.694,259.482 16.775,259.331 16.873 C 259.158 16.985,259.138 17.052,259.278 17.054 C 259.401 17.055,259.593 16.884,259.706 16.674 C 259.955 16.209,259.875 16.083,259.553 16.433 M230.079 18.158 C 230.262 18.360,230.452 18.486,230.500 18.437 C 230.624 18.314,230.166 17.790,229.935 17.790 C 229.831 17.790,229.896 17.956,230.079 18.158 M232.096 20.175 C 232.280 20.378,232.467 20.505,232.513 20.459 C 232.613 20.360,232.090 19.807,231.897 19.807 C 231.823 19.807,231.913 19.973,232.096 20.175 M255.521 20.523 C 255.296 20.827,255.112 21.121,255.112 21.176 C 255.112 21.230,258.310 21.255,262.219 21.231 L 269.326 21.187 262.265 21.134 C 255.388 21.082,255.215 21.072,255.641 20.746 C 255.881 20.562,256.045 20.312,256.004 20.190 C 255.962 20.064,255.756 20.206,255.521 20.523 M233.073 21.001 C 233.027 21.046,229.848 21.089,226.008 21.095 C 222.168 21.102,218.978 21.157,218.918 21.217 C 218.709 21.426,219.013 21.661,219.244 21.469 C 219.391 21.347,221.996 21.262,226.518 21.231 C 230.392 21.205,233.471 21.123,233.359 21.050 C 233.247 20.977,233.118 20.955,233.073 21.001 M218.652 22.779 C 218.371 23.059,218.367 23.344,218.645 23.252 C 218.762 23.212,218.879 23.041,218.904 22.869 C 218.958 22.499,218.938 22.492,218.652 22.779 M238.106 25.676 C 238.106 26.130,238.142 26.316,238.185 26.089 C 238.229 25.862,238.229 25.491,238.185 25.264 C 238.142 25.037,238.106 25.222,238.106 25.676 M262.173 30.080 L 255.021 30.180 262.311 30.213 C 266.850 30.233,269.601 30.179,269.601 30.070 C 269.601 29.973,269.539 29.914,269.464 29.937 C 269.388 29.961,266.107 30.025,262.173 30.080 M226.318 30.258 C 231.982 30.334,233.307 30.397,233.012 30.577 C 232.811 30.700,232.736 30.803,232.846 30.806 C 232.957 30.809,233.197 30.646,233.379 30.445 C 233.711 30.078,233.701 30.078,226.484 30.121 L 219.257 30.163 226.318 30.258 M228.882 34.576 C 228.539 34.989,228.738 35.037,229.147 34.639 C 229.341 34.451,229.413 34.296,229.307 34.296 C 229.201 34.296,229.010 34.422,228.882 34.576 M252.087 40.166 C 252.270 40.369,252.458 40.496,252.504 40.450 C 252.604 40.351,252.081 39.798,251.887 39.798 C 251.814 39.798,251.904 39.964,252.087 40.166 M233.851 42.074 C 233.704 42.251,233.697 42.371,233.829 42.452 C 233.935 42.517,234.027 42.545,234.035 42.514 C 234.213 41.795,234.170 41.691,233.851 42.074 M255.600 43.650 C 255.870 43.953,256.124 44.166,256.165 44.125 C 256.266 44.024,255.452 43.099,255.261 43.099 C 255.178 43.099,255.330 43.347,255.600 43.650 M232.293 43.976 L 231.941 44.475 232.431 44.030 C 232.946 43.563,233.009 43.463,232.783 43.472 C 232.707 43.475,232.487 43.702,232.293 43.976 M227.547 45.233 C 227.486 45.294,227.560 45.468,227.711 45.619 C 228.067 45.975,228.191 45.852,227.890 45.440 C 227.762 45.266,227.608 45.172,227.547 45.233 M228.228 46.059 C 228.148 46.188,228.175 46.225,228.295 46.151 C 228.404 46.083,228.545 46.111,228.608 46.213 C 228.737 46.421,229.436 46.828,229.436 46.695 C 229.436 46.435,228.350 45.863,228.228 46.059 M259.532 46.291 C 259.290 46.425,258.918 46.499,258.707 46.455 C 258.352 46.382,258.348 46.392,258.654 46.587 C 258.837 46.703,259.125 46.737,259.296 46.662 C 259.466 46.587,259.647 46.531,259.697 46.537 C 259.748 46.544,259.896 46.433,260.026 46.291 C 260.320 45.971,260.110 45.971,259.532 46.291 M101.744 65.604 C 101.973 65.648,102.303 65.646,102.478 65.601 C 102.653 65.555,102.467 65.519,102.063 65.521 C 101.660 65.523,101.516 65.560,101.744 65.604 M104.035 65.601 C 104.211 65.647,104.500 65.647,104.677 65.601 C 104.853 65.555,104.709 65.517,104.356 65.517 C 104.003 65.517,103.858 65.555,104.035 65.601 M304.914 65.620 C 304.678 65.855,304.852 65.956,305.365 65.880 C 305.667 65.836,305.915 65.737,305.915 65.660 C 305.915 65.502,305.066 65.468,304.914 65.620 M108.941 65.945 C 109.584 66.087,110.737 66.112,110.657 65.982 C 110.609 65.905,110.141 65.851,109.618 65.863 C 109.094 65.874,108.790 65.911,108.941 65.945 M301.513 66.021 C 301.513 66.119,301.843 66.181,302.246 66.158 C 303.200 66.104,303.200 65.841,302.247 65.841 C 301.843 65.841,301.513 65.922,301.513 66.021 M181.671 66.489 C 181.475 66.637,181.408 66.758,181.522 66.758 C 181.636 66.758,181.782 66.674,181.845 66.572 C 181.908 66.469,182.031 66.430,182.118 66.483 C 182.205 66.537,182.328 66.497,182.392 66.395 C 182.563 66.117,182.079 66.180,181.671 66.489 M319.502 67.191 C 319.544 67.227,319.826 67.312,320.128 67.380 C 320.530 67.470,320.604 67.453,320.403 67.317 C 320.156 67.149,319.318 67.032,319.502 67.191 M64.112 67.873 C 64.503 68.305,64.602 68.317,64.525 67.922 C 64.493 67.755,64.314 67.596,64.129 67.569 C 63.808 67.522,63.807 67.536,64.112 67.873 M150.618 125.493 C 150.593 157.040,150.635 182.852,150.711 182.852 C 150.835 182.852,150.835 144.350,150.710 88.858 C 150.684 77.460,150.643 93.945,150.618 125.493 M357.956 107.428 C 357.930 128.989,357.971 146.708,358.047 146.804 C 358.122 146.900,358.184 129.259,358.184 107.602 C 358.184 85.945,358.144 68.226,358.094 68.226 C 358.044 68.226,357.982 85.867,357.956 107.428 M291.426 69.051 C 291.110 69.231,291.061 69.315,291.266 69.319 C 291.430 69.323,291.667 69.202,291.793 69.051 C 292.072 68.714,292.015 68.714,291.426 69.051 M64.741 69.846 C 64.741 70.064,64.816 70.243,64.908 70.243 C 65.095 70.243,65.067 69.774,64.869 69.576 C 64.798 69.506,64.741 69.627,64.741 69.846 M171.169 71.385 C 170.781 71.886,170.726 72.074,170.999 71.969 C 171.267 71.866,171.554 71.355,171.420 71.221 C 171.381 71.183,171.268 71.256,171.169 71.385 M208.161 71.361 C 208.161 71.452,208.238 71.527,208.332 71.527 C 208.425 71.527,208.632 71.657,208.790 71.815 C 209.006 72.030,209.078 72.042,209.077 71.861 C 209.076 71.728,208.870 71.523,208.618 71.407 C 208.367 71.290,208.161 71.269,208.161 71.361 M63.320 72.015 C 63.193 72.066,63.093 72.245,63.096 72.413 C 63.101 72.693,63.123 72.691,63.344 72.401 C 63.476 72.226,63.652 72.143,63.734 72.217 C 63.816 72.292,63.823 72.249,63.751 72.123 C 63.678 71.997,63.603 71.900,63.584 71.908 C 63.565 71.916,63.446 71.964,63.320 72.015 M126.145 72.436 C 126.417 72.700,126.709 72.883,126.795 72.841 C 126.991 72.747,126.166 71.956,125.870 71.955 C 125.750 71.955,125.873 72.171,126.145 72.436 M285.190 72.981 C 285.190 73.074,285.046 73.188,284.869 73.234 C 284.620 73.300,284.612 73.323,284.834 73.340 C 284.992 73.351,285.280 73.240,285.476 73.092 C 285.798 72.848,285.802 72.822,285.511 72.816 C 285.335 72.813,285.190 72.887,285.190 72.981 M372.163 73.292 C 372.141 73.555,372.202 73.700,372.308 73.635 C 372.525 73.501,372.549 73.052,372.345 72.926 C 372.266 72.877,372.184 73.042,372.163 73.292 M164.695 73.133 C 164.695 73.233,164.819 73.419,164.970 73.544 C 165.124 73.672,165.245 73.691,165.245 73.589 C 165.245 73.488,165.122 73.303,164.970 73.177 C 164.817 73.050,164.695 73.030,164.695 73.133 M377.676 73.223 C 377.317 73.687,377.195 73.972,377.412 73.837 C 377.629 73.703,378.064 72.994,377.929 72.994 C 377.887 72.994,377.773 73.097,377.676 73.223 M62.442 73.773 L 62.151 74.370 62.525 73.911 C 62.885 73.470,63.002 73.177,62.820 73.177 C 62.772 73.177,62.602 73.446,62.442 73.773 M167.668 74.756 C 167.472 74.968,167.495 75.011,167.806 75.011 C 168.011 75.011,168.180 74.934,168.180 74.839 C 168.180 74.535,167.912 74.492,167.668 74.756 M61.023 75.733 C 60.959 75.979,61.007 76.055,61.185 75.987 C 61.474 75.876,61.519 75.632,61.277 75.483 C 61.188 75.428,61.073 75.540,61.023 75.733 M4.221 76.341 C 4.223 76.675,4.258 76.701,4.402 76.479 C 4.631 76.123,4.631 75.928,4.402 75.928 C 4.301 75.928,4.220 76.114,4.221 76.341 M372.453 76.497 C 372.509 76.878,372.585 76.988,372.684 76.828 C 372.765 76.697,372.751 76.441,372.654 76.259 C 372.403 75.791,372.358 75.846,372.453 76.497 M60.523 76.555 C 60.523 76.698,60.420 76.852,60.293 76.897 C 60.167 76.942,60.122 77.041,60.193 77.117 C 60.336 77.271,60.772 76.871,60.844 76.520 C 60.869 76.396,60.807 76.295,60.706 76.295 C 60.605 76.295,60.523 76.412,60.523 76.555 M59.697 77.946 C 59.541 78.249,59.454 78.496,59.505 78.496 C 59.555 78.496,59.724 78.249,59.881 77.946 C 60.037 77.643,60.124 77.396,60.074 77.396 C 60.023 77.396,59.854 77.643,59.697 77.946 M373.657 78.037 C 373.599 78.187,373.465 78.257,373.359 78.192 C 373.251 78.125,373.221 78.160,373.289 78.271 C 373.357 78.380,373.246 78.522,373.043 78.587 C 372.664 78.707,372.527 79.046,372.856 79.046 C 372.957 79.046,373.040 78.959,373.040 78.852 C 373.040 78.745,373.119 78.707,373.215 78.766 C 373.312 78.826,373.521 78.625,373.679 78.319 C 373.837 78.013,373.920 77.762,373.864 77.762 C 373.808 77.762,373.715 77.886,373.657 78.037 M309.216 78.313 C 309.216 78.414,309.340 78.496,309.491 78.496 C 309.642 78.496,309.766 78.414,309.766 78.313 C 309.766 78.212,309.642 78.129,309.491 78.129 C 309.340 78.129,309.216 78.212,309.216 78.313 M279.519 78.736 C 279.511 78.919,279.431 79.022,279.341 78.966 C 279.162 78.856,278.886 79.405,279.042 79.562 C 279.095 79.614,279.138 79.556,279.138 79.433 C 279.138 79.309,279.221 79.259,279.323 79.322 C 279.544 79.459,279.762 78.972,279.628 78.640 C 279.571 78.496,279.528 78.534,279.519 78.736 M335.076 78.635 C 335.076 78.735,335.199 78.921,335.351 79.046 C 335.504 79.174,335.626 79.194,335.626 79.091 C 335.626 78.990,335.502 78.805,335.351 78.680 C 335.197 78.552,335.076 78.532,335.076 78.635 M106.098 79.046 C 105.792 79.178,105.833 79.206,106.338 79.217 C 106.699 79.224,106.899 79.155,106.832 79.046 C 106.700 78.833,106.596 78.833,106.098 79.046 M58.752 79.329 C 58.587 79.759,58.765 79.810,59.018 79.405 C 59.160 79.178,59.172 79.046,59.051 79.046 C 58.946 79.046,58.812 79.174,58.752 79.329 M185.744 79.546 C 186.073 79.587,186.569 79.586,186.844 79.544 C 187.120 79.502,186.850 79.469,186.245 79.470 C 185.640 79.471,185.414 79.505,185.744 79.546 M22.732 80.101 C 35.139 80.134,40.456 80.208,40.542 80.346 C 40.620 80.473,40.704 80.440,40.776 80.254 C 40.877 79.990,39.254 79.967,22.965 80.008 L 5.044 80.053 22.732 80.101 M215.911 80.337 C 216.035 80.535,216.196 80.697,216.269 80.697 C 216.491 80.697,216.222 80.182,215.944 80.076 C 215.732 79.994,215.726 80.040,215.911 80.337 M278.221 80.422 C 278.221 80.573,278.304 80.697,278.404 80.697 C 278.505 80.697,278.588 80.573,278.588 80.422 C 278.588 80.271,278.505 80.147,278.404 80.147 C 278.304 80.147,278.221 80.271,278.221 80.422 M317.102 80.667 C 317.102 80.916,317.991 81.258,318.115 81.057 C 318.175 80.960,318.054 80.880,317.847 80.880 C 317.639 80.880,317.469 80.798,317.469 80.697 C 317.469 80.596,317.387 80.514,317.286 80.514 C 317.185 80.514,317.102 80.583,317.102 80.667 M177.048 81.290 C 176.858 81.597,177.173 81.686,177.455 81.404 C 177.705 81.154,177.704 81.125,177.442 81.125 C 177.282 81.125,177.104 81.199,177.048 81.290 M393.764 81.452 C 393.411 81.515,394.147 81.577,395.400 81.590 C 396.652 81.603,397.626 81.563,397.564 81.501 C 397.410 81.348,394.563 81.311,393.764 81.452 M398.624 81.614 C 398.826 81.701,399.115 81.772,399.266 81.772 C 399.440 81.772,399.406 81.713,399.175 81.614 C 398.973 81.527,398.684 81.456,398.533 81.456 C 398.359 81.456,398.393 81.515,398.624 81.614 M216.723 82.097 C 216.897 82.363,217.072 82.484,217.111 82.366 C 217.192 82.125,216.825 81.614,216.571 81.614 C 216.480 81.614,216.549 81.832,216.723 82.097 M195.971 81.972 C 195.905 82.078,195.974 82.164,196.122 82.164 C 196.271 82.164,196.435 82.267,196.486 82.393 C 196.544 82.537,196.583 82.546,196.593 82.416 C 196.615 82.098,196.114 81.740,195.971 81.972 M115.403 82.767 C 115.578 82.909,115.677 83.069,115.624 83.122 C 115.571 83.176,115.666 83.272,115.835 83.337 C 116.114 83.444,116.118 83.417,115.873 83.049 C 115.725 82.826,115.487 82.612,115.344 82.575 C 115.172 82.531,115.192 82.595,115.403 82.767 M196.790 82.732 C 196.790 82.823,196.870 82.898,196.968 82.898 C 197.065 82.898,197.398 83.145,197.707 83.448 C 198.385 84.110,198.581 84.162,198.129 83.559 C 197.947 83.317,197.737 83.157,197.662 83.203 C 197.586 83.249,197.524 83.167,197.524 83.022 C 197.524 82.876,197.359 82.714,197.157 82.661 C 196.956 82.608,196.790 82.640,196.790 82.732 M217.528 83.575 C 217.569 84.051,217.856 84.455,217.869 84.055 C 217.876 83.834,217.799 83.602,217.698 83.540 C 217.597 83.477,217.521 83.493,217.528 83.575 M293.902 83.775 C 293.801 83.847,293.691 84.063,293.658 84.255 C 293.602 84.579,293.619 84.582,293.902 84.299 C 294.220 83.981,294.220 83.546,293.902 83.775 M275.519 85.295 C 275.505 85.489,275.570 85.649,275.665 85.649 C 275.874 85.649,275.895 85.156,275.691 85.030 C 275.612 84.981,275.534 85.100,275.519 85.295 M199.908 85.907 C 199.908 86.043,200.053 86.267,200.229 86.406 C 200.516 86.631,200.525 86.625,200.313 86.354 C 200.127 86.116,200.125 86.035,200.304 85.975 C 200.455 85.925,200.426 85.859,200.220 85.780 C 200.022 85.704,199.908 85.750,199.908 85.907 M322.840 86.351 C 322.827 86.525,322.977 86.872,323.172 87.121 L 323.527 87.575 323.353 87.089 C 323.257 86.822,323.216 86.566,323.262 86.519 C 323.309 86.473,323.238 86.345,323.106 86.234 C 322.923 86.083,322.859 86.111,322.840 86.351 M218.802 87.070 C 218.810 87.472,219.160 87.739,219.163 87.345 C 219.164 87.118,219.083 86.933,218.982 86.933 C 218.881 86.933,218.800 86.994,218.802 87.070 M200.825 87.380 C 200.825 87.737,201.135 87.907,201.299 87.641 C 201.388 87.497,201.352 87.476,201.189 87.576 C 201.013 87.685,200.978 87.643,201.063 87.421 C 201.128 87.253,201.101 87.116,201.003 87.116 C 200.905 87.116,200.825 87.235,200.825 87.380 M169.709 88.079 C 169.498 88.416,169.470 88.784,169.663 88.665 C 169.755 88.608,169.830 88.438,169.830 88.286 C 169.830 88.125,169.918 88.066,170.042 88.142 C 170.173 88.223,170.204 88.193,170.123 88.061 C 169.957 87.792,169.886 87.795,169.709 88.079 M134.080 88.782 C 134.087 89.127,134.169 89.574,134.261 89.775 C 134.378 90.029,134.399 89.861,134.329 89.230 C 134.211 88.155,134.061 87.887,134.080 88.782 M201.559 88.602 C 201.559 88.753,201.633 88.955,201.725 89.051 C 201.816 89.147,201.929 89.349,201.976 89.500 C 202.023 89.652,202.030 89.530,201.990 89.231 C 201.913 88.642,201.559 88.126,201.559 88.602 M290.912 88.620 C 290.791 88.741,290.702 89.009,290.714 89.216 C 290.734 89.584,290.737 89.584,290.825 89.225 C 290.875 89.023,290.999 88.755,291.101 88.629 C 291.339 88.337,291.202 88.330,290.912 88.620 M118.967 91.273 C 118.784 91.456,118.819 91.884,119.017 91.884 C 119.111 91.884,119.176 91.719,119.161 91.518 C 119.130 91.103,119.133 91.107,118.967 91.273 M273.008 92.190 C 272.943 92.358,272.976 92.581,273.080 92.685 C 273.210 92.816,273.269 92.720,273.269 92.380 C 273.269 91.814,273.178 91.748,273.008 92.190 M50.115 92.721 C 49.845 93.014,49.822 93.168,50.049 93.168 C 50.206 93.168,50.499 92.616,50.394 92.519 C 50.366 92.493,50.241 92.584,50.115 92.721 M375.241 94.437 C 375.241 94.530,375.191 94.736,375.129 94.896 C 375.068 95.055,375.091 95.186,375.181 95.186 C 375.271 95.186,375.361 94.979,375.382 94.727 C 375.403 94.475,375.380 94.269,375.330 94.269 C 375.281 94.269,375.241 94.344,375.241 94.437 M134.525 119.504 C 134.525 133.162,134.587 144.337,134.663 144.337 C 134.843 144.337,134.843 94.867,134.663 94.756 C 134.587 94.709,134.525 105.846,134.525 119.504 M30.203 96.536 C 29.854 97.068,29.948 97.176,30.381 96.743 C 30.533 96.591,30.627 96.373,30.589 96.259 C 30.551 96.146,30.377 96.270,30.203 96.536 M108.439 96.601 C 108.718 96.643,109.130 96.642,109.356 96.599 C 109.582 96.555,109.354 96.521,108.849 96.522 C 108.345 96.523,108.160 96.559,108.439 96.601 M116.815 97.081 C 116.937 97.203,117.135 97.203,117.410 97.081 C 117.789 96.912,117.775 96.897,117.226 96.897 C 116.830 96.897,116.693 96.959,116.815 97.081 M271.924 96.959 C 271.857 97.026,271.802 97.246,271.802 97.448 C 271.802 97.898,271.969 97.761,272.072 97.228 C 272.152 96.814,272.123 96.760,271.924 96.959 M204.187 97.524 C 204.204 97.851,204.280 98.120,204.356 98.120 C 204.531 98.120,204.512 97.766,204.312 97.295 C 204.187 97.001,204.163 97.046,204.187 97.524 M96.599 97.406 C 96.744 97.551,96.897 97.552,97.140 97.411 C 97.436 97.239,97.411 97.214,96.937 97.209 C 96.543 97.205,96.451 97.258,96.599 97.406 M28.833 98.624 C 28.284 99.465,28.397 99.571,28.962 98.747 C 29.202 98.398,29.365 98.082,29.325 98.046 C 29.285 98.010,29.064 98.270,28.833 98.624 M93.077 98.120 C 93.014 98.221,93.138 98.304,93.352 98.304 C 93.565 98.304,93.689 98.221,93.627 98.120 C 93.564 98.019,93.441 97.937,93.352 97.937 C 93.263 97.937,93.139 98.019,93.077 98.120 M91.151 98.657 C 91.151 98.750,91.006 98.865,90.830 98.911 C 90.559 98.981,90.556 98.998,90.807 99.016 C 90.972 99.028,91.209 98.913,91.334 98.762 C 91.492 98.572,91.499 98.487,91.357 98.487 C 91.243 98.487,91.151 98.563,91.151 98.657 M166.302 117.047 L 166.350 133.039 166.746 133.461 C 166.965 133.693,167.223 133.884,167.319 133.884 C 167.416 133.884,167.278 133.712,167.012 133.503 L 166.529 133.123 166.529 117.089 C 166.529 108.270,166.467 101.055,166.392 101.055 C 166.316 101.055,166.276 108.251,166.302 117.047 M221.352 102.568 C 221.236 102.947,221.249 103.275,221.383 103.357 C 221.475 103.414,221.550 103.249,221.550 102.991 C 221.550 102.618,221.421 102.342,221.352 102.568 M42.366 104.576 C 42.366 104.791,42.428 104.892,42.503 104.801 C 42.579 104.710,42.710 104.584,42.794 104.521 C 42.878 104.458,42.816 104.357,42.656 104.295 C 42.447 104.215,42.366 104.294,42.366 104.576 M341.665 104.585 C 341.540 105.005,341.532 105.457,341.647 105.529 C 341.728 105.579,341.795 105.377,341.795 105.080 C 341.795 104.637,341.726 104.377,341.665 104.585 M221.275 105.181 C 221.275 105.433,221.337 105.640,221.412 105.640 C 221.488 105.640,221.550 105.433,221.550 105.181 C 221.550 104.929,221.488 104.723,221.412 104.723 C 221.337 104.723,221.275 104.929,221.275 105.181 M79.505 105.640 C 79.321 105.843,79.212 106.050,79.263 106.100 C 79.313 106.151,79.505 106.026,79.688 105.823 C 79.872 105.620,79.981 105.413,79.931 105.362 C 79.880 105.312,79.689 105.437,79.505 105.640 M22.925 107.902 C 22.925 108.070,22.843 108.207,22.742 108.207 C 22.641 108.207,22.558 108.290,22.558 108.391 C 22.558 108.492,22.635 108.574,22.730 108.574 C 22.936 108.574,23.187 107.857,23.034 107.704 C 22.974 107.645,22.925 107.733,22.925 107.902 M106.236 108.884 C 106.412 108.930,106.701 108.930,106.878 108.884 C 107.054 108.838,106.910 108.800,106.557 108.800 C 106.204 108.800,106.059 108.838,106.236 108.884 M108.253 108.884 C 108.430 108.930,108.718 108.930,108.895 108.884 C 109.072 108.838,108.927 108.800,108.574 108.800 C 108.221 108.800,108.077 108.838,108.253 108.884 M97.616 110.047 C 97.389 110.138,97.203 110.257,97.203 110.310 C 97.203 110.488,97.495 110.412,97.856 110.139 C 98.262 109.832,98.205 109.810,97.616 110.047 M38.576 110.513 C 38.460 110.758,38.435 110.958,38.519 110.958 C 38.679 110.958,38.964 110.246,38.850 110.133 C 38.815 110.097,38.691 110.268,38.576 110.513 M74.669 112.639 C 74.358 113.136,74.495 113.238,74.876 112.793 C 75.044 112.598,75.118 112.399,75.041 112.352 C 74.964 112.305,74.797 112.434,74.669 112.639 M220.888 113.062 C 220.955 113.514,221.183 113.613,221.183 113.190 C 221.183 112.971,221.108 112.792,221.016 112.792 C 220.924 112.792,220.866 112.914,220.888 113.062 M91.635 113.618 C 91.577 113.769,91.574 113.893,91.628 113.893 C 91.683 113.893,91.851 113.769,92.002 113.618 C 92.241 113.379,92.242 113.343,92.009 113.343 C 91.861 113.343,91.693 113.466,91.635 113.618 M90.119 115.589 C 90.176 115.766,90.156 115.910,90.075 115.910 C 89.994 115.910,89.928 116.034,89.928 116.185 C 89.928 116.546,89.999 116.532,90.215 116.130 C 90.330 115.913,90.327 115.707,90.204 115.533 C 90.051 115.318,90.035 115.329,90.119 115.589 M16.919 117.104 C 16.995 117.187,16.913 117.426,16.736 117.634 C 16.495 117.918,16.488 117.957,16.706 117.788 C 16.867 117.665,17.053 117.618,17.119 117.685 C 17.185 117.751,17.240 117.673,17.240 117.510 C 17.240 117.348,17.137 117.156,17.011 117.084 C 16.884 117.011,16.843 117.020,16.919 117.104 M203.260 117.928 C 203.275 118.129,203.347 118.294,203.421 118.294 C 203.494 118.294,203.541 118.129,203.526 117.928 C 203.511 117.726,203.438 117.561,203.365 117.561 C 203.292 117.561,203.245 117.726,203.260 117.928 M288.488 118.193 C 288.578 118.430,288.595 118.686,288.526 118.763 C 288.456 118.840,288.498 118.847,288.617 118.779 C 288.897 118.619,288.851 117.964,288.552 117.849 C 288.383 117.784,288.366 117.874,288.488 118.193 M15.830 118.799 C 15.767 118.975,15.681 119.202,15.639 119.303 C 15.597 119.404,15.692 119.326,15.851 119.130 C 16.139 118.775,16.226 118.478,16.042 118.478 C 15.988 118.478,15.893 118.622,15.830 118.799 M15.222 119.825 C 15.222 119.961,15.057 120.221,14.856 120.403 C 14.654 120.586,14.489 120.816,14.489 120.915 C 14.489 121.121,15.582 119.926,15.586 119.716 C 15.588 119.640,15.507 119.578,15.406 119.578 C 15.305 119.578,15.222 119.689,15.222 119.825 M88.464 122.879 C 88.464 123.737,88.495 124.088,88.534 123.659 C 88.573 123.230,88.573 122.529,88.534 122.100 C 88.495 121.671,88.464 122.022,88.464 122.879 M12.503 124.037 C 12.070 124.499,12.001 124.713,12.288 124.713 C 12.389 124.713,12.471 124.617,12.471 124.499 C 12.471 124.380,12.608 124.133,12.775 123.948 C 13.219 123.457,12.972 123.538,12.503 124.037 M273.622 124.209 C 273.501 124.603,273.549 124.854,273.785 125.075 C 274.041 125.314,274.056 125.304,273.924 124.983 C 273.842 124.784,273.772 124.519,273.767 124.392 C 273.759 124.195,273.663 124.073,273.622 124.209 M29.270 124.989 C 29.104 125.241,28.997 125.447,29.032 125.447 C 29.067 125.447,29.274 125.241,29.493 124.989 C 29.713 124.736,29.820 124.530,29.731 124.530 C 29.642 124.530,29.435 124.736,29.270 124.989 M217.882 124.989 C 217.756 125.140,217.714 125.264,217.789 125.264 C 217.863 125.264,217.798 125.456,217.643 125.692 C 217.408 126.050,217.405 126.120,217.622 126.120 C 217.765 126.120,217.882 125.982,217.882 125.814 C 217.882 125.646,217.939 125.451,218.009 125.381 C 218.138 125.252,218.262 124.713,218.163 124.713 C 218.134 124.713,218.007 124.837,217.882 124.989 M274.920 128.152 C 274.920 128.266,275.004 128.412,275.106 128.475 C 275.209 128.538,275.245 128.667,275.187 128.761 C 275.129 128.855,275.169 128.932,275.276 128.932 C 275.539 128.932,275.511 128.726,275.189 128.301 C 275.041 128.105,274.920 128.038,274.920 128.152 M216.427 128.370 C 216.120 128.564,215.998 129.115,216.263 129.115 C 216.363 129.115,216.410 129.012,216.368 128.886 C 216.325 128.760,216.422 128.556,216.582 128.433 C 216.921 128.173,216.811 128.127,216.427 128.370 M89.684 129.093 C 89.684 129.220,89.807 129.448,89.959 129.600 C 90.310 129.951,90.306 129.685,89.953 129.218 C 89.802 129.018,89.684 128.963,89.684 129.093 M192.847 132.050 C 192.785 132.150,192.858 132.233,193.009 132.233 C 193.160 132.233,193.335 132.150,193.398 132.050 C 193.460 131.949,193.387 131.866,193.236 131.866 C 193.084 131.866,192.910 131.949,192.847 132.050 M6.358 133.456 C 6.291 133.523,6.241 133.750,6.247 133.960 C 6.258 134.311,6.273 134.307,6.435 133.903 C 6.614 133.454,6.577 133.237,6.358 133.456 M213.158 133.696 C 212.844 134.200,212.872 134.334,213.220 133.987 C 213.379 133.827,213.482 133.614,213.448 133.513 C 213.415 133.412,213.284 133.494,213.158 133.696 M94.884 134.159 C 95.036 134.310,95.204 134.434,95.259 134.434 C 95.313 134.434,95.310 134.310,95.252 134.159 C 95.194 134.007,95.026 133.884,94.878 133.884 C 94.645 133.884,94.646 133.920,94.884 134.159 M321.137 134.801 C 320.703 134.940,320.710 134.948,321.275 134.966 C 321.602 134.976,321.871 134.901,321.871 134.801 C 321.871 134.593,321.784 134.593,321.137 134.801 M306.746 134.974 C 306.687 135.070,306.806 135.116,307.010 135.077 C 307.215 135.037,307.382 135.069,307.382 135.147 C 307.382 135.226,307.517 135.290,307.681 135.290 C 307.941 135.290,307.936 135.257,307.646 135.045 C 307.254 134.758,306.897 134.730,306.746 134.974 M319.368 134.927 C 319.551 135.109,320.220 135.133,320.109 134.953 C 320.057 134.869,319.841 134.801,319.628 134.801 C 319.416 134.801,319.299 134.857,319.368 134.927 M111.807 135.389 C 111.933 135.592,112.425 135.571,112.425 135.362 C 112.425 135.268,112.266 135.202,112.071 135.217 C 111.877 135.231,111.758 135.309,111.807 135.389 M311.784 135.351 C 312.139 135.581,312.334 135.581,312.334 135.351 C 312.334 135.250,312.148 135.169,311.921 135.170 C 311.587 135.172,311.561 135.207,311.784 135.351 M314.076 135.351 C 313.942 135.568,314.122 135.568,314.626 135.351 C 314.980 135.199,314.979 135.193,314.591 135.180 C 314.370 135.173,314.138 135.250,314.076 135.351 M208.796 138.297 C 208.601 138.612,208.775 138.643,209.160 138.362 C 209.457 138.144,209.466 138.102,209.216 138.102 C 209.051 138.102,208.862 138.190,208.796 138.297 M284.171 140.403 C 284.565 140.698,284.901 140.759,284.745 140.508 C 284.691 140.419,284.459 140.300,284.230 140.242 C 283.829 140.141,283.827 140.147,284.171 140.403 M79.626 141.199 C 79.751 141.399,79.913 141.526,79.986 141.481 C 80.059 141.435,80.157 141.544,80.203 141.722 C 80.274 141.994,80.291 141.998,80.309 141.745 C 80.321 141.580,80.121 141.308,79.865 141.140 C 79.413 140.844,79.406 140.846,79.626 141.199 M81.761 142.976 C 81.988 143.134,82.275 143.224,82.398 143.174 C 82.527 143.121,82.485 143.076,82.302 143.068 C 82.125 143.060,81.981 142.971,81.981 142.870 C 81.981 142.769,81.839 142.687,81.665 142.687 C 81.407 142.687,81.424 142.740,81.761 142.976 M335.748 144.460 C 335.681 144.527,335.627 144.671,335.629 144.781 C 335.631 144.915,335.675 144.912,335.766 144.771 C 335.840 144.657,336.066 144.522,336.268 144.472 C 336.623 144.383,336.622 144.379,336.252 144.359 C 336.042 144.347,335.815 144.392,335.748 144.460 M131.147 145.219 C 131.139 145.358,131.036 145.404,130.903 145.328 C 130.777 145.255,130.738 145.266,130.817 145.353 C 131.067 145.628,131.476 145.596,131.721 145.283 C 131.930 145.016,131.922 145.008,131.655 145.216 C 131.407 145.410,131.334 145.410,131.257 145.216 C 131.180 145.025,131.159 145.025,131.147 145.219 M16.291 146.859 C 24.697 146.886,38.397 146.886,46.736 146.859 C 55.075 146.833,48.198 146.811,31.453 146.811 C 14.709 146.811,7.886 146.833,16.291 146.859 M120.414 147.369 C 120.104 147.604,120.098 147.639,120.368 147.639 C 120.539 147.639,120.679 147.551,120.679 147.444 C 120.679 147.338,120.774 147.309,120.890 147.381 C 121.022 147.462,121.052 147.431,120.971 147.300 C 120.813 147.044,120.850 147.040,120.414 147.369 M168.324 147.348 C 168.047 147.551,168.075 147.578,168.561 147.578 C 168.863 147.578,169.046 147.528,168.966 147.468 C 168.887 147.408,168.780 147.305,168.730 147.239 C 168.679 147.173,168.496 147.222,168.324 147.348 M93.994 147.639 C 94.498 147.856,94.678 147.856,94.544 147.639 C 94.481 147.538,94.250 147.461,94.029 147.468 C 93.641 147.481,93.640 147.487,93.994 147.639 M118.111 147.635 C 118.111 147.769,119.403 147.692,119.545 147.550 C 119.585 147.510,119.278 147.482,118.864 147.488 C 118.450 147.494,118.111 147.560,118.111 147.635 M102.522 148.369 C 102.180 148.476,102.304 148.508,103.013 148.496 C 103.536 148.487,103.923 148.414,103.874 148.334 C 103.765 148.158,103.144 148.174,102.522 148.369 M108.024 148.372 C 108.024 148.473,108.143 148.556,108.288 148.556 C 108.433 148.556,108.603 148.473,108.666 148.372 C 108.728 148.271,108.609 148.189,108.401 148.189 C 108.194 148.189,108.024 148.271,108.024 148.372 M308.849 148.333 C 308.849 148.412,309.014 148.477,309.216 148.477 C 309.418 148.477,309.583 148.412,309.583 148.333 C 309.583 148.254,309.418 148.189,309.216 148.189 C 309.014 148.189,308.849 148.254,308.849 148.333 M314.718 148.365 C 314.718 148.462,314.958 148.524,315.250 148.502 C 315.543 148.481,315.745 148.402,315.698 148.326 C 315.574 148.125,314.718 148.158,314.718 148.365 M151.191 182.981 C 151.262 183.052,151.544 183.132,151.818 183.158 C 152.247 183.199,152.265 183.183,151.949 183.042 C 151.502 182.842,151.013 182.803,151.191 182.981 " stroke="none" fill="#fc4404" fill-rule="evenodd"></path><path id="path2" d="" stroke="none" fill="#1004c04" fill-rule="evenodd"></path><path id="path3" d="" stroke="none" fill="#1004c04" fill-rule="evenodd"></path><path id="path4" d="" stroke="none" fill="#1004c04" fill-rule="evenodd"></path></g></svg>